<?xml version="1.0" standalone="no"?><!DOCTYPE svg PUBLIC "-//W3C//DTD SVG 1.1//EN" "http://www.w3.org/Graphics/SVG/1.1/DTD/svg11.dtd"><svg t="1637645992459" class="icon" viewBox="0 0 1024 1024" version="1.1" xmlns="http://www.w3.org/2000/svg" p-id="4476" width="16" height="16" xmlns:xlink="http://www.w3.org/1999/xlink"><defs><style type="text/css"></style></defs><path d="M0 0h1024v1024H0z" fill="#1296db" p-id="4477" data-spm-anchor-id="a313x.7781069.0.i17" class="selected"></path><path d="M482.5 309.6s260.5 88.6 281.3-62.5S602.3 63 447.8 136 296.7 318.3 288 382.5c-8.7 64.2-31.3 517.4 92 552.2C503.3 969.4 479 636 479 636s222.3 93.8 269.1-38.2c46.9-132-31.3-296.9-288.2-191 0 0-1.7-57.3 22.6-97.2z" fill="#FFFFFF" p-id="4478"></path><path d="M607.2 519.4m-125.9 0a125.9 125.9 0 1 0 251.8 0 125.9 125.9 0 1 0-251.8 0Z" fill="#E6E6E6" p-id="4479"></path><path d="M607.2 519.4m-106.4 0a106.4 106.4 0 1 0 212.8 0 106.4 106.4 0 1 0-212.8 0Z" fill="#4D4D4D" p-id="4480" data-spm-anchor-id="a313x.7781069.0.i19" class="selected"></path><path d="M625.6 534.7m-65.1 0a65.1 65.1 0 1 0 130.2 0 65.1 65.1 0 1 0-130.2 0Z" fill="#1296db" p-id="4481" data-spm-anchor-id="a313x.7781069.0.i18" class="selected"></path></svg>